<svg xmlns="http://www.w3.org/2000/svg" width="28" height="28" fill="none" xmlns:v="https://vecta.io/nano"><mask id="A" mask-type="alpha" maskUnits="userSpaceOnUse" x="0" y="0" width="28" height="28"><path fill-rule="evenodd" d="M8.228.084L14 0l5.772.084c1.49.068 2.508.305 3.398.651a6.86 6.86 0 0 1 2.48 1.615 6.86 6.86 0 0 1 1.615 2.48c.346.891.583 1.908.651 3.398L28 14l-.084 5.772c-.068 1.49-.305 2.508-.651 3.398a6.86 6.86 0 0 1-1.615 2.48 6.86 6.86 0 0 1-2.48 1.615c-.89.346-1.908.583-3.398.651L14 28c-3.802 0-4.279-.016-5.772-.084s-2.508-.305-3.398-.651a6.86 6.86 0 0 1-2.48-1.615 6.86 6.86 0 0 1-1.615-2.48c-.346-.89-.583-1.908-.651-3.398L0 14l.084-5.772c.068-1.49.305-2.508.651-3.398A6.86 6.86 0 0 1 2.35 2.35 6.86 6.86 0 0 1 4.829.735C5.72.389 6.738.152 8.228.084zm11.429 2.52L14 2.522l-5.657.082c-1.365.062-2.106.29-2.6.482-.653.254-1.12.557-1.61 1.047s-.793.956-1.047 1.61c-.192.493-.42 1.235-.482 2.6L2.522 14l.082 5.657c.062 1.365.29 2.106.482 2.6.254.654.557 1.12 1.047 1.61s.956.793 1.61 1.047c.493.192 1.235.42 2.6.482l5.657.082 5.657-.082c1.365-.062 2.106-.29 2.6-.482.653-.254 1.12-.557 1.61-1.047s.793-.956 1.047-1.61c.192-.493.42-1.235.482-2.6L25.477 14l-.082-5.657c-.062-1.365-.29-2.106-.482-2.6-.254-.653-.557-1.12-1.047-1.61s-.956-.793-1.61-1.047c-.493-.192-1.235-.42-2.6-.482zM14 6.811A7.19 7.19 0 0 1 21.189 14 7.19 7.19 0 0 1 14 21.189 7.19 7.19 0 0 1 6.81 14 7.19 7.19 0 0 1 14 6.811zm0 11.856A4.67 4.67 0 0 1 9.333 14 4.67 4.67 0 0 1 14 9.333 4.67 4.67 0 0 1 18.667 14 4.67 4.67 0 0 1 14 18.667zm9.154-12.14a1.68 1.68 0 0 1-3.36 0 1.68 1.68 0 1 1 3.36 0z" fill="#fff"/></mask><g mask="url(#A)"><path fill="#fff" d="M0 0h28v28H0z"/></g></svg>