<svg xmlns="http://www.w3.org/2000/svg" width="28" height="28" fill="none" xmlns:v="https://vecta.io/nano"><path d="M25.11 8.564v.673C25.11 16.542 19.331 25 8.769 25 5.68 25 2.591 24.135 0 22.501c2.989.384 6.078-.481 8.47-2.307-2.491 0-4.584-1.634-5.381-3.845.897.192 1.794.096 2.591-.096-2.69-.481-4.584-2.787-4.584-5.382v-.096c.797.384 1.694.673 2.591.673C1.196 9.814.399 6.642 1.893 4.047c2.89 3.46 7.174 5.575 11.858 5.767-.498-1.922.199-3.941 1.694-5.286 2.292-2.115 5.979-2.018 8.071.192 1.295-.288 2.491-.673 3.687-1.346a5.5 5.5 0 0 1-2.491 3.076c1.096-.096 2.292-.384 3.288-.865-.797 1.153-1.794 2.211-2.89 2.98z" fill="#fff"/></svg>