<svg xmlns="http://www.w3.org/2000/svg" width="28" height="28" fill="none" xmlns:v="https://vecta.io/nano"><g clip-path="url(#A)"><path fill-rule="evenodd" d="M27.925 9.885l.054 1.003.016 2.403-.005 1.111.004.775-.169 3.981c-.226 1.584-.661 3.41-2.331 3.985-1.88.647-3.893.687-5.861.726l-.169.003-1.986.044-6.744.071-.99-.011-3.173-.09c-1.307-.086-2.786-.198-4.01-.7C.268 22.248.142 19.455.057 17.31l-.051-4.96.001-.609c-.002-1.7-.004-3.597.702-5.125.882-1.909 2.829-2.189 4.722-2.342l4.634-.193h.001l9.031-.019 4.448.328c1.167.133 2.396.352 3.19 1.322.927 1.133 1.084 2.755 1.191 4.172zM11 9l7 4.499L11 18V9z" fill="#fff"/></g><defs><clipPath id="A"><path fill="#fff" d="M0 0h28v28H0z"/></clipPath></defs></svg>